<svg width="25" height="18" viewBox="0 0 25 18" fill="none" xmlns="http://www.w3.org/2000/svg">
<g clip-path="url(#clip0)">
<path d="M21.4905 12.9H8.24125C7.79763 12.9 7.41317 12.6429 7.29487 12.2743L4.77122 4.31143C4.69235 4.05429 4.7515 3.78 4.9388 3.56572C5.1261 3.35143 5.41199 3.23143 5.71759 3.23143H24.0141C24.3197 3.23143 24.6155 3.36 24.8028 3.56572C24.9901 3.78 25.0492 4.05429 24.9703 4.31143L22.4467 12.2657C22.3284 12.6429 21.9341 12.9 21.4905 12.9ZM9.00032 11.1857H20.7511L22.7326 4.94572H7.01885L9.00032 11.1857Z" fill="#222222"/>
<path d="M8.24127 12.9009C7.80751 12.9009 7.41319 12.6523 7.2949 12.2666L4.00231 1.83517L0.946315 1.71517C0.394265 1.69803 -0.0197729 1.29517 -5.67697e-05 0.823743C0.0196593 0.352314 0.453413 -0.0333998 1.02518 0.00945737L4.80081 0.155172C5.23456 0.163743 5.59931 0.420886 5.71761 0.772314L9.1975 11.8123C9.34537 12.2666 9.02991 12.738 8.50744 12.8666C8.41871 12.8923 8.32999 12.9009 8.24127 12.9009Z" fill="#222222"/>
<path d="M10.5973 18C9.09889 18 7.88635 16.9457 7.88635 15.6429C7.88635 14.34 9.09889 13.2857 10.5973 13.2857C12.0957 13.2857 13.3083 14.34 13.3083 15.6429C13.3083 16.9457 12.0957 18 10.5973 18ZM10.5973 15C10.1931 15 9.85796 15.2914 9.85796 15.6429C9.85796 15.9943 10.1931 16.2857 10.5973 16.2857C11.0015 16.2857 11.3367 15.9943 11.3367 15.6429C11.3367 15.2914 11.0015 15 10.5973 15Z" fill="#222222"/>
<path d="M18.8091 18C17.3107 18 16.0981 16.9457 16.0981 15.6429C16.0981 14.34 17.3107 13.2857 18.8091 13.2857C20.3075 13.2857 21.5201 14.34 21.5201 15.6429C21.5201 16.9457 20.3075 18 18.8091 18ZM18.8091 15C18.4049 15 18.0698 15.2914 18.0698 15.6429C18.0698 15.9943 18.4049 16.2857 18.8091 16.2857C19.2133 16.2857 19.5485 15.9943 19.5485 15.6429C19.5485 15.2914 19.2231 15 18.8091 15Z" fill="#222222"/>
</g>
<defs>
<clipPath id="clip0">
<rect width="25" height="18" fill="white"/>
</clipPath>
</defs>
</svg>
