<svg width="15" height="16" viewBox="0 0 15 16" fill="none" xmlns="http://www.w3.org/2000/svg">
<path d="M14.3407 3.13725H0.659341C0.296703 3.13725 0 2.83687 0 2.46975C0 2.10262 0.296703 1.80225 0.659341 1.80225H14.3407C14.7033 1.80225 15 2.10262 15 2.46975C15 2.83687 14.7033 3.13725 14.3407 3.13725Z" fill="#E80000"/>
<path d="M9.19792 2.73675C9.03309 1.92908 8.321 1.335 7.50342 1.335C6.67924 1.335 5.96056 1.9224 5.80232 2.73675L4.51001 2.46975C4.79353 1.0413 6.05287 0 7.50342 0C8.94737 0 10.2067 1.0413 10.4968 2.47643L9.19792 2.73675Z" fill="#E80000"/>
<path d="M3.05288 16C2.36057 16 1.78694 15.4326 1.74079 14.705L1.06167 3.13725C1.04189 2.77013 1.31881 2.4564 1.68145 2.4297C2.05727 2.403 2.35397 2.69003 2.38035 3.05715L3.06606 14.6249L11.954 14.665L12.6331 3.05715C12.6529 2.69003 12.9694 2.40968 13.332 2.4297C13.6946 2.44973 13.9716 2.77013 13.9518 3.13725L13.2661 14.705C13.2199 15.4326 12.6463 16 11.954 16H3.05288Z" fill="#E80000"/>
<path d="M4.99785 13.5503C4.6484 13.5503 4.35829 13.2766 4.33851 12.9228L3.90334 4.96621C3.88356 4.59908 4.16048 4.28536 4.52312 4.26533C4.88576 4.23863 5.19565 4.52566 5.21543 4.89278L5.65719 12.8494C5.67697 13.2165 5.40004 13.5302 5.03741 13.5503C5.02422 13.5503 5.01103 13.5503 4.99785 13.5503Z" fill="#E80000"/>
<path d="M10.0021 13.5503C9.98895 13.5503 9.97576 13.5503 9.96257 13.5503C9.59994 13.5302 9.32301 13.2165 9.34279 12.8494L9.78455 4.89278C9.80433 4.52566 10.1208 4.23863 10.4769 4.26533C10.8395 4.28536 11.1164 4.59908 11.0966 4.96621L10.6549 12.9228C10.6351 13.2766 10.345 13.5503 10.0021 13.5503Z" fill="#E80000"/>
<path d="M7.50346 13.5503C7.14082 13.5503 6.84412 13.2499 6.84412 12.8828V4.93282C6.84412 4.5657 7.14082 4.26532 7.50346 4.26532C7.86609 4.26532 8.1628 4.5657 8.1628 4.93282V12.8828C8.1628 13.2499 7.86609 13.5503 7.50346 13.5503Z" fill="#E80000"/>
</svg>
